<?xml version="1.0" encoding="UTF-8"?>
<svg id="Layer_2" data-name="Layer 2" xmlns="http://www.w3.org/2000/svg" viewBox="0 0 552.59 108.82">
  <defs>
    <style>
      .cls-1 {
        fill: #b85725;
      }

      .cls-1, .cls-2, .cls-3 {
        stroke-width: 0px;
      }

      .cls-2 {
        fill: #fff;
      }

      .cls-3 {
        fill: #fff4e9;
      }
    </style>
  </defs>
  <g id="Layer_1-2" data-name="Layer 1">
    <g>
      <rect class="cls-3" x="0" y="23.82" width="538" height="85" rx="34.71" ry="34.71"/>
      <g>
        <circle class="cls-2" cx="492.5" cy="41.32" r="32.5"/>
        <path class="cls-1" d="m492.46,0h.01c11.38,0,21.69,4.63,29.15,12.09,7.45,7.45,12.06,17.75,12.07,29.12h0v.06h0c0,4.58-.76,9-2.14,13.11-.23.69-.47,1.35-.72,1.99h0c-1.19,3.02-2.73,5.88-4.58,8.51l23.99,21.56h.01s.13.13.13.13h0c1.35,1.3,2.09,3.02,2.19,4.78.09,1.73-.45,3.5-1.63,4.93h0s-.14.18-.14.18l-.03.03-.12.13v.02c-1.3,1.35-3.03,2.09-4.78,2.18-1.73.09-3.5-.45-4.93-1.63h-.01s-.17-.15-.17-.15l-.02-.02-24.54-22.05c-.73.51-1.47,1-2.22,1.46-1.02.62-2.07,1.21-3.15,1.74-5.53,2.76-11.77,4.31-18.37,4.31h0s-.01,0-.01,0h0c-11.38,0-21.69-4.63-29.15-12.09-7.45-7.45-12.06-17.75-12.07-29.12h0v-.03h0s0-.01,0-.01c0-11.38,4.62-21.69,12.08-29.15C470.77,4.63,481.06.01,492.44,0h0s.03,0,.03,0h0Zm.01,9.25h0s-.01,0-.01,0h-.03c-8.81,0-16.8,3.58-22.59,9.36-5.78,5.78-9.37,13.78-9.37,22.6h0v.04h0c0,8.81,3.59,16.8,9.37,22.59,5.78,5.78,13.78,9.37,22.6,9.37h0s.01,0,.01,0h.03c8.81,0,16.8-3.58,22.59-9.36,5.78-5.78,9.37-13.78,9.37-22.6h0v-.04h0c0-8.81-3.59-16.8-9.37-22.59-5.78-5.78-13.78-9.37-22.6-9.37h0Z"/>
      </g>
    </g>
  </g>
</svg>